# xmcd
#
# Track frame offsets: 
#        150
#        17945
#        35692
#        49502
#        62302
#        78610
#        96560
#        116822
#        142032
#        164025
#        179855
#        190087
#        202402
#        227795
#        249797
#        268907
#        304532
#
# Disc length: 4598 seconds
#
# Revision: 8
# Processed by: cddbd v1.5.2PL0 Copyright (c) Steve Scherf et al.
# Submitted via: ExactAudioCopyFreeDBPlugin 1.0
#
DISCID=0211f411
DTITLE=Clint Black - Greatest Hits II
DYEAR=2001
DGENRE=Country
TTITLE0=The Shoes You're Wearing
TTITLE1=Nothin' but the Taillights
TTITLE2=Nothing's News
TTITLE3=Walkin' Away
TTITLE4=When My Ship Comes In
TTITLE5=Something That We Do
TTITLE6=Clint Black - Lisa Hartman Black - When I Said I Do
TTITLE7=Clint Black - Steve Wariner - Been There
TTITLE8=Clint Black - Martina McBride - Still Holding On
TTITLE9=Nobody's Home
TTITLE10=One More Payment
TTITLE11=One Emotion
TTITLE12=Clint Black - Lisa Hartman Black - Easy For Me To Say
TTITLE13=Little Pearl and Lily's Lullaby
TTITLE14=Money or Love
TTITLE15=Put Yourself In My Shoes (Blues Version)
TTITLE16=DATA
EXTD=
EXTT0=
EXTT1=
EXTT2=
EXTT3=
EXTT4=
EXTT5=
EXTT6=
EXTT7=
EXTT8=
EXTT9=
EXTT10=
EXTT11=
EXTT12=
EXTT13=
EXTT14=
EXTT15=
EXTT16=
PLAYORDER=
